<svg id="svg" version="1.1" xmlns="http://www.w3.org/2000/svg" xmlns:xlink="http://www.w3.org/1999/xlink" width="400" height="400" viewBox="0, 0, 400,400"><g id="svgg"><path id="path0" d="M197.950 73.722 C 197.660 74.421,196.859 75.625,196.171 76.397 C 195.482 77.169,194.667 78.284,194.359 78.877 C 193.478 80.574,190.752 84.506,189.730 85.555 C 189.218 86.080,188.800 86.831,188.800 87.224 C 188.800 87.617,188.354 88.469,187.808 89.118 C 187.262 89.766,186.474 91.085,186.055 92.048 C 185.637 93.012,184.829 94.334,184.260 94.987 C 183.691 95.639,183.110 96.700,182.968 97.345 C 182.827 97.989,182.119 99.108,181.395 99.832 C 180.493 100.733,179.992 101.691,179.802 102.874 C 179.648 103.839,179.013 105.251,178.363 106.077 C 177.723 106.889,177.196 107.969,177.191 108.477 C 177.181 109.534,175.881 112.579,175.282 112.949 C 175.061 113.086,174.666 114.092,174.403 115.186 C 174.141 116.279,173.394 117.977,172.744 118.959 C 171.875 120.270,171.393 121.731,170.925 124.465 C 170.529 126.780,169.943 128.718,169.374 129.593 C 168.772 130.520,168.364 131.939,168.178 133.752 C 167.746 137.960,165.195 139.413,162.386 137.050 C 161.765 136.527,160.575 135.972,159.741 135.815 C 158.907 135.659,157.472 135.090,156.553 134.551 C 155.633 134.012,153.615 133.221,152.067 132.792 C 150.519 132.363,148.608 131.574,147.820 131.039 C 146.742 130.308,145.621 130.004,143.294 129.811 C 140.220 129.557,139.887 129.457,137.200 127.974 C 136.410 127.538,135.015 127.198,134.000 127.193 C 131.633 127.183,125.469 126.235,122.755 125.463 C 119.440 124.520,115.641 124.001,111.954 123.988 C 110.109 123.981,106.440 123.714,103.800 123.396 C 95.140 122.351,94.563 122.526,94.718 126.144 C 94.823 128.575,95.434 130.604,96.495 132.041 C 96.943 132.648,97.402 134.200,97.596 135.768 C 97.817 137.550,98.271 138.970,98.946 139.990 C 99.508 140.840,100.084 142.442,100.234 143.575 C 100.394 144.778,100.968 146.320,101.626 147.314 C 102.242 148.244,103.039 150.294,103.398 151.871 C 103.808 153.673,104.409 155.125,105.017 155.781 C 105.549 156.355,106.271 157.809,106.621 159.012 C 106.971 160.216,107.419 161.200,107.618 161.200 C 108.108 161.200,109.039 163.088,109.394 164.800 C 109.554 165.570,110.117 166.662,110.646 167.226 C 111.175 167.790,111.938 169.190,112.341 170.336 C 112.745 171.483,113.349 172.641,113.684 172.910 C 114.019 173.180,114.722 174.197,115.246 175.170 C 115.771 176.144,116.609 177.355,117.108 177.860 C 117.607 178.366,118.128 179.338,118.264 180.022 C 118.401 180.705,118.855 181.474,119.273 181.732 C 119.691 181.989,120.483 182.965,121.033 183.900 C 121.584 184.835,122.178 185.600,122.353 185.600 C 122.725 185.600,124.800 189.294,124.800 189.957 C 124.800 190.618,119.285 194.045,117.211 194.673 C 116.227 194.971,114.877 195.733,114.211 196.366 C 113.545 196.999,112.417 197.640,111.705 197.789 C 110.993 197.939,110.086 198.473,109.690 198.977 C 109.294 199.480,108.601 200.009,108.151 200.152 C 107.700 200.295,106.638 201.030,105.789 201.784 C 104.941 202.539,103.606 203.481,102.824 203.878 C 102.041 204.275,101.174 204.901,100.899 205.269 C 100.623 205.638,99.795 206.138,99.058 206.381 C 98.288 206.635,97.524 207.248,97.262 207.823 C 97.012 208.373,96.490 208.938,96.103 209.079 C 95.717 209.220,94.760 209.980,93.978 210.768 C 91.777 212.985,88.424 215.769,87.571 216.087 C 87.147 216.245,86.800 216.539,86.800 216.741 C 86.800 217.391,82.669 221.218,81.705 221.460 C 81.192 221.588,80.500 222.220,80.167 222.864 C 79.834 223.508,79.129 224.232,78.601 224.472 C 78.072 224.713,77.466 225.380,77.254 225.955 C 77.041 226.530,75.637 228.277,74.134 229.837 C 71.259 232.822,68.278 236.237,68.087 236.767 C 67.901 237.279,68.880 237.843,70.900 238.390 C 71.945 238.673,72.800 239.063,72.800 239.258 C 72.800 239.714,74.869 240.583,77.322 241.158 C 78.379 241.406,79.729 241.951,80.322 242.370 C 80.915 242.789,82.656 243.436,84.192 243.808 C 85.727 244.179,87.475 244.897,88.075 245.402 C 88.760 245.978,89.956 246.418,91.283 246.583 C 95.162 247.065,97.784 247.724,99.400 248.626 C 100.454 249.213,102.051 249.611,104.078 249.791 C 105.890 249.952,107.783 250.391,108.678 250.858 C 109.803 251.445,111.817 251.798,116.400 252.211 C 119.810 252.519,125.030 252.989,128.000 253.256 C 130.970 253.523,134.075 253.706,134.901 253.661 C 138.429 253.471,140.014 255.669,139.281 259.734 C 139.037 261.090,138.722 264.270,138.582 266.800 C 138.442 269.330,138.087 272.390,137.794 273.600 C 136.478 279.028,136.300 281.475,136.509 291.227 C 136.684 299.351,136.861 301.561,137.560 304.325 C 138.022 306.154,138.400 308.582,138.400 309.720 C 138.400 315.616,139.671 325.328,140.643 326.869 C 141.584 328.359,142.859 328.876,143.406 327.990 C 143.546 327.765,144.871 326.970,146.353 326.224 C 147.834 325.478,149.282 324.583,149.571 324.235 C 149.860 323.887,150.949 323.349,151.991 323.040 C 153.034 322.730,154.354 322.009,154.925 321.438 C 155.496 320.867,156.338 320.400,156.795 320.400 C 157.252 320.400,158.224 319.815,158.955 319.100 C 160.191 317.890,161.602 316.920,165.787 314.400 C 166.701 313.850,167.887 312.976,168.424 312.459 C 168.961 311.941,170.570 310.635,172.000 309.555 C 173.430 308.476,174.870 307.347,175.200 307.047 C 175.530 306.746,176.552 306.121,177.471 305.657 C 178.390 305.193,179.257 304.450,179.398 304.007 C 179.539 303.563,179.822 303.200,180.028 303.200 C 180.412 303.200,185.788 298.138,189.126 294.633 C 190.157 293.551,192.260 291.369,193.800 289.785 C 195.340 288.200,196.907 286.341,197.281 285.652 C 198.470 283.469,201.524 284.037,203.338 286.778 C 203.942 287.691,205.553 289.615,206.918 291.054 C 208.283 292.494,209.649 294.060,209.954 294.536 C 210.259 295.011,211.765 296.480,213.302 297.800 C 214.839 299.120,216.694 300.740,217.424 301.400 C 218.154 302.060,219.499 303.230,220.412 304.000 C 221.326 304.770,222.732 306.050,223.537 306.845 C 224.341 307.640,225.563 308.579,226.252 308.931 C 226.940 309.283,227.609 309.847,227.739 310.185 C 227.869 310.523,228.235 310.800,228.553 310.800 C 228.871 310.800,229.735 311.385,230.472 312.100 C 231.210 312.815,232.566 313.738,233.486 314.152 C 234.407 314.565,235.620 315.420,236.183 316.052 C 236.746 316.683,237.430 317.202,237.703 317.204 C 237.976 317.206,238.982 317.829,239.937 318.589 C 240.893 319.348,242.063 320.086,242.537 320.229 C 243.012 320.372,243.940 320.990,244.600 321.603 C 245.260 322.216,246.389 322.841,247.110 322.993 C 247.830 323.144,248.932 323.699,249.558 324.226 C 250.184 324.753,251.547 325.549,252.586 325.994 C 253.625 326.439,255.124 327.339,255.917 327.992 C 257.808 329.551,258.585 328.957,258.930 325.688 C 259.062 324.430,259.521 322.679,259.948 321.797 C 262.549 316.431,262.465 262.578,259.851 259.647 C 258.849 258.522,258.871 256.482,259.900 255.251 C 260.665 254.336,268.007 253.382,281.800 252.407 C 286.721 252.059,288.570 251.770,289.800 251.158 C 290.680 250.721,293.110 250.100,295.200 249.779 C 297.536 249.420,299.400 248.901,300.038 248.431 C 300.714 247.934,302.665 247.426,305.638 246.973 C 308.961 246.466,310.596 246.015,311.659 245.313 C 312.461 244.782,314.261 244.083,315.659 243.758 C 317.056 243.433,318.841 242.745,319.625 242.228 C 320.409 241.711,322.049 241.080,323.270 240.827 C 324.492 240.573,326.073 239.936,326.784 239.412 C 327.496 238.887,328.770 238.340,329.616 238.197 C 332.619 237.690,332.473 237.233,327.739 232.322 C 321.771 226.131,311.743 216.217,309.005 213.800 C 307.759 212.700,306.168 211.233,305.470 210.540 C 304.771 209.847,303.795 209.160,303.300 209.013 C 302.805 208.866,302.400 208.584,302.400 208.385 C 302.400 208.187,301.455 207.389,300.300 206.613 C 299.145 205.836,297.030 204.303,295.600 203.205 C 294.170 202.107,292.563 201.019,292.030 200.787 C 291.496 200.556,290.371 199.744,289.529 198.983 C 288.687 198.222,287.644 197.600,287.213 197.600 C 286.781 197.600,285.837 197.088,285.114 196.462 C 284.391 195.836,282.925 195.030,281.855 194.671 C 279.972 194.039,276.280 191.822,275.034 190.577 C 274.361 189.904,276.438 185.458,277.776 184.710 C 278.123 184.515,278.666 183.738,278.982 182.982 C 279.298 182.226,280.007 181.156,280.559 180.605 C 281.110 180.053,281.920 178.791,282.358 177.801 C 282.797 176.810,283.331 176.000,283.546 176.000 C 283.762 176.000,284.132 175.415,284.370 174.700 C 284.607 173.985,285.481 172.500,286.312 171.400 C 287.143 170.300,288.041 168.664,288.308 167.765 C 288.575 166.866,289.155 165.802,289.598 165.402 C 290.041 165.001,290.599 163.937,290.839 163.036 C 291.078 162.136,291.690 160.850,292.199 160.177 C 292.707 159.504,293.401 158.020,293.739 156.880 C 294.078 155.739,294.815 154.203,295.376 153.467 C 295.937 152.732,296.565 151.245,296.770 150.165 C 297.238 147.712,297.554 146.863,298.474 145.600 C 298.874 145.050,299.468 143.324,299.793 141.765 C 300.118 140.206,300.817 138.136,301.346 137.165 C 301.875 136.194,302.429 134.410,302.576 133.200 C 302.744 131.826,303.237 130.429,303.891 129.479 C 305.124 127.688,305.588 124.196,304.732 123.151 C 304.242 122.553,303.668 122.559,297.400 123.227 C 293.660 123.626,289.070 123.972,287.200 123.997 C 283.808 124.042,281.711 124.359,274.259 125.955 C 272.092 126.419,268.613 126.955,266.528 127.147 C 263.666 127.410,262.455 127.705,261.582 128.350 C 260.825 128.910,259.352 129.348,257.313 129.621 C 253.578 130.122,251.716 130.671,250.472 131.638 C 249.961 132.035,248.701 132.482,247.672 132.631 C 245.600 132.931,244.596 133.349,243.400 134.408 C 242.960 134.798,241.297 135.481,239.704 135.927 C 238.111 136.372,236.331 137.111,235.750 137.568 C 233.870 139.047,232.898 138.371,231.638 134.712 C 231.216 133.484,230.607 132.056,230.284 131.540 C 229.962 131.023,229.475 128.898,229.203 126.817 C 228.718 123.121,228.164 121.200,227.582 121.200 C 227.423 121.200,226.895 120.165,226.408 118.900 C 225.922 117.635,225.017 115.430,224.398 114.000 C 223.778 112.570,223.154 110.829,223.011 110.132 C 222.868 109.434,222.313 108.391,221.779 107.815 C 221.244 107.238,220.703 106.279,220.576 105.683 C 220.123 103.560,219.152 101.267,218.621 101.063 C 218.324 100.949,217.863 100.168,217.597 99.328 C 217.330 98.488,216.621 97.170,216.019 96.400 C 215.418 95.630,214.700 94.313,214.423 93.473 C 214.146 92.633,213.399 91.413,212.763 90.762 C 212.052 90.035,211.506 88.956,211.348 87.962 C 211.176 86.891,210.770 86.137,210.144 85.727 C 209.624 85.386,208.806 84.408,208.326 83.554 C 207.846 82.699,207.324 82.000,207.166 82.000 C 206.765 82.000,205.200 79.278,205.200 78.581 C 205.200 78.265,204.825 77.780,204.367 77.503 C 203.908 77.227,203.188 76.331,202.765 75.513 C 201.408 72.886,198.711 71.883,197.950 73.722 M233.844 142.493 C 234.856 146.626,235.075 157.583,234.222 161.400 C 233.877 162.940,233.211 166.075,232.742 168.366 C 232.256 170.736,231.394 173.470,230.744 174.707 C 230.115 175.903,229.600 177.299,229.600 177.810 C 229.600 178.321,229.148 179.276,228.595 179.934 C 225.227 183.936,225.724 187.087,229.524 185.825 C 236.417 183.536,246.138 182.678,252.800 183.772 C 260.603 185.053,265.495 186.102,267.000 186.817 C 267.880 187.235,269.619 187.860,270.864 188.206 C 273.399 188.911,273.765 189.406,273.120 191.256 C 272.384 193.369,266.130 199.204,260.583 202.955 C 259.473 203.705,258.349 204.579,258.085 204.898 C 257.821 205.216,256.839 205.811,255.902 206.220 C 254.966 206.630,253.700 207.370,253.088 207.866 C 252.477 208.362,251.307 208.892,250.488 209.044 C 249.670 209.196,248.010 209.832,246.800 210.458 C 245.404 211.181,243.449 211.754,241.453 212.026 C 239.722 212.262,237.865 212.623,237.327 212.828 C 236.788 213.033,235.738 213.200,234.992 213.200 C 232.159 213.200,232.612 216.404,235.634 217.742 C 237.903 218.747,245.582 225.964,247.399 228.800 C 247.893 229.570,248.680 230.543,249.148 230.962 C 249.617 231.381,250.000 231.934,250.000 232.192 C 250.000 232.449,250.630 233.545,251.400 234.628 C 252.170 235.711,252.800 236.767,252.800 236.975 C 252.800 237.182,253.497 238.533,254.349 239.976 C 255.201 241.419,256.136 243.500,256.426 244.600 C 256.717 245.700,257.469 247.582,258.099 248.781 C 259.322 251.114,259.350 253.477,258.169 254.818 C 257.513 255.562,240.147 252.638,238.388 251.487 C 237.845 251.132,236.360 250.570,235.088 250.239 C 233.817 249.908,232.254 249.265,231.615 248.810 C 230.976 248.355,229.681 247.711,228.738 247.378 C 227.795 247.045,226.658 246.443,226.211 246.040 C 225.765 245.638,224.410 244.673,223.200 243.897 C 221.990 243.121,219.958 241.501,218.685 240.297 C 216.611 238.336,216.238 238.134,215.110 238.365 L 213.851 238.622 213.794 245.211 C 213.727 252.859,212.036 262.314,210.231 265.125 C 209.710 265.936,209.171 267.257,209.032 268.059 C 208.893 268.862,208.453 269.942,208.054 270.459 C 207.655 270.977,206.841 272.475,206.246 273.789 C 205.650 275.103,204.894 276.475,204.565 276.838 C 204.237 277.201,203.480 278.460,202.884 279.636 C 201.330 282.700,198.134 283.456,197.194 280.983 C 196.977 280.412,196.367 279.373,195.840 278.673 C 195.312 277.973,194.469 276.500,193.967 275.400 C 193.465 274.300,192.762 273.016,192.406 272.547 C 192.050 272.078,191.508 270.908,191.200 269.947 C 190.892 268.986,190.257 267.570,189.788 266.800 C 189.016 265.533,187.709 261.102,186.189 254.600 C 185.830 253.066,185.623 249.799,185.614 245.544 C 185.602 239.776,185.505 238.772,184.889 238.011 L 184.178 237.133 182.331 238.666 C 176.645 243.386,175.497 244.309,173.925 245.425 C 172.976 246.099,171.460 246.943,170.555 247.300 C 169.650 247.657,168.261 248.390,167.468 248.928 C 166.676 249.466,165.346 250.030,164.514 250.183 C 163.681 250.335,162.280 250.876,161.400 251.386 C 160.412 251.958,158.271 252.559,155.800 252.957 C 153.600 253.312,150.810 253.774,149.600 253.983 C 148.390 254.193,146.582 254.454,145.582 254.563 C 144.582 254.673,143.471 254.875,143.113 255.012 C 140.501 256.014,140.103 248.644,142.604 245.600 C 142.875 245.270,143.491 243.795,143.974 242.322 C 144.456 240.849,145.203 239.196,145.632 238.650 C 146.062 238.103,146.726 236.967,147.107 236.125 C 147.488 235.283,148.295 233.948,148.900 233.159 C 149.505 232.370,150.000 231.522,150.000 231.274 C 150.000 230.769,150.758 229.895,156.055 224.300 C 158.086 222.155,159.971 220.400,160.245 220.400 C 160.518 220.400,161.116 219.925,161.572 219.344 C 162.029 218.764,163.302 217.872,164.401 217.363 C 166.776 216.263,167.540 213.200,165.440 213.200 C 162.137 213.200,153.748 211.362,152.459 210.355 C 151.942 209.952,150.862 209.509,150.059 209.372 C 149.257 209.235,147.610 208.533,146.400 207.811 C 145.190 207.089,143.799 206.375,143.309 206.225 C 142.819 206.075,141.649 205.309,140.709 204.523 C 139.769 203.737,138.415 202.814,137.700 202.473 C 136.985 202.131,136.400 201.744,136.400 201.613 C 136.400 201.481,134.237 199.489,131.593 197.187 C 124.093 190.654,124.119 189.704,131.868 187.108 C 141.560 183.861,154.336 182.401,160.824 183.799 C 162.461 184.152,165.240 184.721,167.000 185.063 C 168.760 185.406,170.719 185.954,171.353 186.281 C 173.389 187.331,173.983 184.592,172.183 182.453 C 171.624 181.789,170.874 180.380,170.516 179.323 C 170.158 178.265,169.524 176.936,169.108 176.368 C 168.691 175.801,168.011 173.781,167.595 171.879 C 167.180 169.977,166.665 168.095,166.451 167.696 C 164.559 164.160,164.184 141.357,165.987 139.468 C 166.863 138.551,169.395 138.721,170.370 139.763 C 170.903 140.333,171.537 140.800,171.779 140.800 C 172.020 140.800,172.844 141.314,173.609 141.942 C 174.374 142.570,175.571 143.377,176.269 143.736 C 176.967 144.095,178.407 145.115,179.469 146.003 C 180.531 146.892,181.580 147.765,181.800 147.945 C 182.020 148.125,183.064 149.202,184.119 150.339 C 185.175 151.476,186.464 152.686,186.985 153.027 C 187.505 153.368,188.230 154.277,188.596 155.048 C 188.961 155.818,189.524 156.549,189.845 156.673 C 190.167 156.796,190.671 157.473,190.965 158.178 C 191.259 158.882,192.030 160.075,192.678 160.829 C 194.511 162.962,197.095 168.028,197.405 170.095 C 198.102 174.741,201.460 173.576,202.764 168.236 C 203.028 167.156,204.044 164.954,205.022 163.343 C 206.000 161.732,206.800 160.225,206.800 159.994 C 206.800 159.764,207.077 159.469,207.415 159.339 C 207.753 159.209,208.290 158.599,208.609 157.982 C 209.312 156.623,210.331 155.481,215.000 150.819 C 220.876 144.951,221.326 144.553,223.073 143.663 C 223.993 143.195,224.861 142.625,225.001 142.398 C 225.142 142.171,226.134 141.540,227.206 140.997 C 228.278 140.454,229.300 139.764,229.478 139.463 C 230.735 137.334,232.959 138.877,233.844 142.493 " stroke="none" fill="#fcc307" fill-rule="evenodd"></path><path id="path1" d="M0.000 200.000 L 0.000 400.000 200.000 400.000 L 400.000 400.000 400.000 200.000 L 400.000 0.000 200.000 0.000 L 0.000 0.000 0.000 200.000 M201.872 70.015 C 202.752 70.322,203.288 70.945,203.924 72.401 C 204.397 73.485,205.219 74.656,205.751 75.005 C 206.332 75.385,206.823 76.198,206.981 77.037 C 207.161 77.998,207.537 78.548,208.182 78.793 C 208.743 79.006,209.305 79.707,209.577 80.531 C 209.828 81.290,210.626 82.522,211.351 83.268 C 212.076 84.015,212.803 85.159,212.967 85.811 C 213.130 86.462,213.807 87.449,214.471 88.002 C 215.409 88.786,215.724 89.432,215.891 90.910 C 216.069 92.486,216.267 92.852,217.049 93.048 C 217.730 93.219,218.110 93.724,218.417 94.863 C 218.651 95.732,219.148 96.759,219.521 97.147 C 220.501 98.165,221.467 100.009,221.775 101.450 C 221.921 102.137,222.482 103.114,223.021 103.620 C 224.042 104.579,224.794 106.633,224.798 108.471 C 224.799 109.159,225.190 109.849,225.891 110.400 C 226.714 111.047,227.107 111.868,227.486 113.729 C 227.763 115.088,228.260 116.398,228.590 116.641 C 229.559 117.352,230.313 119.605,230.618 122.707 C 230.775 124.298,231.056 125.600,231.242 125.600 C 232.054 125.600,232.992 127.947,233.380 130.952 L 233.800 134.200 235.870 134.185 C 237.560 134.172,238.133 133.976,238.992 133.117 C 239.768 132.341,240.779 131.933,242.845 131.564 C 244.688 131.235,245.768 130.833,246.007 130.387 C 246.481 129.500,248.023 128.909,251.111 128.430 C 252.496 128.216,254.076 127.683,254.635 127.244 C 255.806 126.323,258.393 125.763,263.184 125.392 C 265.925 125.180,266.781 124.950,267.695 124.181 C 268.991 123.091,269.862 122.919,275.487 122.639 C 277.959 122.515,279.935 122.213,280.487 121.873 C 282.318 120.746,301.479 119.113,305.037 119.781 C 307.406 120.225,309.016 121.914,308.062 122.953 C 307.459 123.608,307.218 124.662,306.997 127.600 C 306.718 131.328,306.105 133.563,305.028 134.785 C 304.730 135.123,304.362 136.390,304.209 137.600 C 303.928 139.834,302.600 143.200,301.999 143.200 C 301.818 143.200,301.558 143.965,301.420 144.900 C 300.914 148.338,300.290 150.067,299.410 150.468 C 298.719 150.783,298.447 151.448,298.056 153.777 C 297.690 155.953,297.317 156.927,296.583 157.616 C 296.042 158.124,295.599 158.733,295.598 158.970 C 295.592 160.093,294.670 162.530,293.995 163.205 C 292.994 164.206,292.000 166.171,292.000 167.149 C 292.000 167.583,291.505 168.520,290.900 169.232 C 290.295 169.943,289.518 171.351,289.173 172.362 C 288.807 173.436,288.194 174.359,287.700 174.583 C 287.159 174.828,286.694 175.600,286.413 176.715 C 286.170 177.679,285.485 178.914,284.886 179.466 C 284.289 180.017,283.530 181.038,283.200 181.734 C 282.869 182.430,282.210 183.171,281.734 183.380 C 281.257 183.589,280.769 184.255,280.648 184.859 C 280.527 185.463,280.107 186.342,279.714 186.812 C 279.321 187.283,278.685 188.040,278.300 188.495 C 277.129 189.879,277.315 190.059,280.505 190.624 C 281.521 190.804,282.277 191.266,282.832 192.045 C 283.450 192.913,283.978 193.200,284.955 193.200 C 285.836 193.200,286.763 193.621,287.828 194.506 C 288.693 195.225,290.060 196.114,290.866 196.483 C 291.672 196.852,292.449 197.525,292.593 197.977 C 292.736 198.430,293.111 198.800,293.424 198.800 C 294.675 198.800,297.095 200.191,297.711 201.264 C 298.089 201.923,298.703 202.400,299.172 202.400 C 299.617 202.400,300.282 202.859,300.649 203.419 C 301.017 203.980,301.904 204.683,302.621 204.983 C 303.339 205.283,304.977 206.600,306.263 207.910 C 307.548 209.221,309.169 210.583,309.865 210.938 C 310.560 211.294,311.467 212.013,311.880 212.538 C 312.292 213.062,313.183 213.777,313.859 214.127 C 314.534 214.476,315.315 215.311,315.592 215.981 C 315.870 216.652,316.324 217.200,316.601 217.200 C 316.878 217.200,317.586 217.830,318.173 218.600 C 318.760 219.370,319.504 220.000,319.826 220.000 C 320.148 220.000,320.752 220.560,321.169 221.245 C 321.585 221.929,322.347 222.696,322.863 222.949 C 323.378 223.202,324.041 223.953,324.335 224.617 C 324.629 225.282,325.394 226.126,326.035 226.494 C 326.676 226.862,327.200 227.437,327.200 227.771 C 327.200 228.106,327.740 228.659,328.400 229.000 C 329.060 229.341,329.600 229.795,329.600 230.008 C 329.600 230.221,330.404 231.211,331.388 232.209 C 334.204 235.066,334.653 238.659,332.307 239.565 C 331.808 239.757,330.977 240.370,330.460 240.925 C 329.815 241.619,328.909 242.020,327.570 242.204 C 326.326 242.375,325.100 242.885,324.189 243.609 C 322.799 244.713,322.377 244.859,319.000 245.404 C 318.120 245.546,316.943 246.096,316.384 246.626 C 315.544 247.422,314.662 247.672,311.288 248.067 C 308.059 248.446,307.162 248.689,306.990 249.230 C 306.702 250.139,305.279 250.615,301.283 251.139 C 299.217 251.411,297.181 251.972,295.883 252.628 C 294.252 253.452,292.844 253.764,289.400 254.063 C 286.980 254.274,284.525 254.704,283.945 255.019 C 281.750 256.211,277.275 256.800,270.407 256.800 C 266.699 256.800,263.426 256.892,263.133 257.004 C 262.495 257.249,263.095 264.846,263.859 266.200 C 266.102 270.177,266.110 310.554,263.869 314.063 C 263.470 314.686,263.131 316.958,262.854 320.843 C 262.477 326.156,261.638 329.999,260.857 330.000 C 260.715 330.001,260.077 330.451,259.438 331.000 C 258.159 332.101,256.999 332.295,256.679 331.462 C 256.566 331.166,255.633 330.689,254.606 330.402 C 253.516 330.096,252.491 329.501,252.143 328.970 C 251.767 328.396,250.793 327.867,249.501 327.536 C 248.017 327.156,247.286 326.718,246.841 325.943 C 246.412 325.195,245.788 324.804,244.759 324.640 C 243.948 324.510,242.744 323.895,242.072 323.267 C 241.402 322.641,240.166 321.870,239.327 321.553 C 238.483 321.235,237.621 320.567,237.400 320.061 C 237.169 319.532,236.523 319.048,235.869 318.916 C 235.247 318.790,234.109 318.094,233.340 317.369 C 232.571 316.644,231.396 315.931,230.729 315.784 C 229.979 315.620,229.265 315.076,228.858 314.360 C 228.485 313.704,227.625 313.011,226.873 312.761 C 226.144 312.519,225.356 311.902,225.123 311.391 C 224.890 310.880,224.296 310.360,223.802 310.236 C 223.309 310.113,222.207 309.314,221.353 308.462 C 220.499 307.610,219.384 306.782,218.876 306.622 C 218.367 306.462,217.761 305.913,217.529 305.403 C 217.296 304.893,216.511 304.155,215.783 303.763 C 215.056 303.371,214.269 302.631,214.035 302.117 C 213.801 301.604,213.154 301.011,212.598 300.799 C 212.041 300.588,211.410 299.952,211.195 299.387 C 210.970 298.794,210.296 298.183,209.600 297.940 C 208.854 297.680,208.303 297.155,208.155 296.561 C 208.022 296.034,207.440 295.375,206.861 295.098 C 206.281 294.820,205.566 294.089,205.270 293.473 C 204.975 292.857,204.304 292.157,203.778 291.917 C 203.253 291.678,202.638 290.922,202.413 290.238 C 201.986 288.945,198.400 287.082,198.400 288.153 C 198.400 288.926,190.982 297.300,189.954 297.689 C 189.533 297.848,189.020 298.422,188.813 298.965 C 188.607 299.507,188.102 300.132,187.690 300.352 C 187.279 300.572,186.219 301.438,185.335 302.276 C 181.389 306.019,180.361 306.828,179.272 307.046 C 178.468 307.206,177.940 307.666,177.555 308.539 C 177.205 309.336,176.660 309.848,176.077 309.931 C 175.570 310.003,174.964 310.480,174.731 310.991 C 174.499 311.502,173.630 312.226,172.800 312.600 C 171.971 312.974,171.068 313.700,170.793 314.214 C 170.307 315.122,169.026 315.826,167.400 316.080 C 166.960 316.149,166.422 316.609,166.205 317.103 C 165.988 317.597,165.186 318.207,164.424 318.458 C 163.661 318.710,162.468 319.519,161.772 320.257 C 161.076 320.995,159.938 321.712,159.244 321.851 C 158.508 321.998,157.644 322.577,157.174 323.237 C 156.645 323.979,155.856 324.466,154.885 324.648 C 154.049 324.805,152.953 325.408,152.370 326.032 C 151.784 326.659,150.691 327.259,149.846 327.418 C 148.948 327.586,148.115 328.062,147.753 328.615 C 146.893 329.928,144.380 330.800,141.454 330.800 C 137.897 330.800,137.604 330.393,137.238 324.929 C 137.078 322.548,136.746 320.229,136.500 319.775 C 133.828 314.852,133.420 267.259,136.007 262.297 C 136.491 261.368,136.912 259.797,136.943 258.804 L 137.000 257.000 128.400 256.750 C 120.000 256.506,118.306 256.253,115.753 254.863 C 115.339 254.638,112.790 254.270,110.089 254.045 C 106.108 253.715,104.819 253.446,103.289 252.627 C 102.058 251.969,100.027 251.418,97.460 251.045 C 94.287 250.584,93.313 250.279,92.460 249.477 C 91.610 248.678,90.697 248.390,87.846 248.018 C 84.672 247.605,82.451 246.751,82.413 245.929 C 82.406 245.780,81.365 245.532,80.100 245.379 C 77.501 245.063,76.811 244.775,75.484 243.447 C 74.903 242.866,73.820 242.404,72.620 242.224 C 70.393 241.890,68.000 240.850,68.000 240.217 C 68.000 239.978,67.358 239.436,66.572 239.013 C 64.355 237.819,64.069 236.912,65.490 235.584 C 66.138 234.978,66.894 233.939,67.169 233.276 C 67.456 232.583,68.066 231.970,68.603 231.835 C 69.204 231.684,69.693 231.131,69.971 230.287 C 70.264 229.400,70.793 228.827,71.602 228.522 C 72.418 228.214,72.800 227.797,72.800 227.214 C 72.800 226.619,73.216 226.185,74.171 225.786 C 75.068 225.412,75.587 224.899,75.671 224.307 C 75.753 223.734,76.279 223.189,77.100 222.828 C 77.815 222.513,78.400 221.987,78.400 221.659 C 78.400 220.790,79.604 219.600,80.483 219.600 C 80.967 219.600,81.394 219.164,81.661 218.398 C 81.914 217.672,82.447 217.103,83.006 216.963 C 83.521 216.833,84.144 216.218,84.410 215.575 C 84.712 214.847,85.381 214.242,86.219 213.939 C 87.028 213.646,87.636 213.109,87.772 212.569 C 87.905 212.040,88.497 211.505,89.233 211.249 C 89.914 211.011,90.557 210.484,90.664 210.078 C 90.770 209.671,91.395 209.021,92.052 208.633 C 92.709 208.245,93.794 207.326,94.462 206.591 C 95.131 205.857,96.356 204.984,97.186 204.652 C 98.015 204.320,98.785 203.702,98.895 203.279 C 99.029 202.767,99.599 202.414,100.593 202.228 C 101.604 202.038,102.156 201.691,102.296 201.155 C 102.410 200.720,103.245 199.987,104.151 199.526 C 105.058 199.066,106.327 198.176,106.971 197.549 C 107.615 196.922,108.718 196.302,109.422 196.170 C 110.185 196.026,111.049 195.460,111.560 194.768 C 112.176 193.936,112.893 193.531,114.091 193.339 C 115.152 193.169,116.134 192.675,116.781 191.985 C 117.341 191.388,118.487 190.679,119.327 190.409 C 120.416 190.061,120.789 189.748,120.626 189.323 C 120.500 188.994,120.278 188.247,120.133 187.663 C 119.988 187.078,119.181 185.782,118.341 184.782 C 117.500 183.782,116.697 182.387,116.556 181.682 C 116.415 180.977,116.080 180.400,115.812 180.400 C 115.157 180.400,114.164 179.226,113.794 178.015 C 113.628 177.474,112.993 176.531,112.382 175.921 C 111.737 175.276,111.162 174.162,111.010 173.262 C 110.834 172.215,110.382 171.442,109.619 170.878 C 108.829 170.293,108.344 169.433,108.002 168.009 C 107.709 166.786,107.066 165.528,106.390 164.851 C 105.771 164.233,105.056 162.950,104.800 162.001 C 104.545 161.053,103.988 159.989,103.562 159.638 C 103.091 159.250,102.575 157.970,102.243 156.367 C 101.877 154.596,101.371 153.407,100.696 152.733 C 99.951 151.987,99.567 150.971,99.197 148.765 C 98.836 146.615,98.436 145.536,97.741 144.837 C 97.215 144.308,96.705 143.498,96.608 143.037 C 96.511 142.577,96.226 141.120,95.976 139.800 C 95.725 138.480,95.195 137.040,94.798 136.600 C 93.826 135.521,93.205 133.081,93.202 130.325 C 93.200 128.357,93.038 127.872,92.000 126.736 C 90.402 124.985,90.242 121.584,91.713 120.620 C 93.902 119.186,111.581 119.837,116.600 121.536 C 118.163 122.065,120.605 122.434,123.600 122.594 C 129.772 122.923,130.591 123.077,131.888 124.159 C 132.735 124.865,133.715 125.152,136.000 125.360 C 141.748 125.884,142.859 126.116,144.291 127.088 C 145.114 127.646,146.776 128.229,148.166 128.447 C 151.386 128.951,153.090 129.522,153.919 130.376 C 154.294 130.761,155.739 131.312,157.131 131.600 C 158.937 131.973,159.829 132.377,160.245 133.012 C 160.894 134.003,163.182 134.544,165.102 134.160 C 166.282 133.924,166.286 133.912,166.537 130.385 C 166.827 126.291,167.583 123.767,168.767 122.938 C 169.354 122.527,169.601 121.919,169.602 120.877 C 169.606 118.712,170.295 116.586,171.431 115.236 C 172.092 114.451,172.516 113.339,172.679 111.966 C 172.846 110.554,173.263 109.486,173.977 108.643 C 174.555 107.959,175.256 106.507,175.535 105.416 C 176.087 103.256,176.618 102.400,177.406 102.400 C 177.972 102.400,178.400 101.529,178.400 100.375 C 178.400 99.081,179.640 96.441,180.355 96.214 C 180.745 96.091,181.237 95.241,181.510 94.220 C 181.772 93.242,182.529 91.887,183.193 91.207 C 183.857 90.528,184.400 89.625,184.400 89.200 C 184.400 88.775,184.915 87.837,185.544 87.114 C 186.173 86.391,187.055 84.963,187.504 83.940 C 187.975 82.865,188.671 81.968,189.151 81.816 C 189.684 81.646,190.132 80.994,190.401 79.997 C 190.631 79.142,191.249 78.105,191.775 77.691 C 192.301 77.277,193.002 76.292,193.332 75.501 C 193.663 74.709,194.381 73.769,194.929 73.410 C 195.476 73.051,196.043 72.283,196.188 71.704 C 196.684 69.729,199.041 69.029,201.872 70.015 " stroke="none" fill="#fcfcfb" fill-rule="evenodd"></path><path id="path2" d="M230.400 138.714 C 230.070 138.826,229.655 139.163,229.478 139.463 C 229.300 139.764,228.278 140.454,227.206 140.997 C 226.134 141.540,225.142 142.171,225.001 142.398 C 224.861 142.625,223.993 143.195,223.073 143.663 C 221.326 144.553,220.876 144.951,215.000 150.819 C 210.331 155.481,209.312 156.623,208.609 157.982 C 208.290 158.599,207.753 159.209,207.415 159.339 C 207.077 159.469,206.800 159.764,206.800 159.994 C 206.800 160.225,206.000 161.732,205.022 163.343 C 204.044 164.954,203.028 167.156,202.764 168.236 C 201.460 173.576,198.102 174.741,197.405 170.095 C 197.095 168.028,194.511 162.962,192.678 160.829 C 192.030 160.075,191.259 158.882,190.965 158.178 C 190.671 157.473,190.167 156.796,189.845 156.673 C 189.524 156.549,188.961 155.818,188.596 155.048 C 188.230 154.277,187.505 153.368,186.985 153.027 C 186.464 152.686,185.175 151.476,184.119 150.339 C 183.064 149.202,182.020 148.125,181.800 147.945 C 181.580 147.765,180.531 146.892,179.469 146.003 C 178.407 145.115,176.967 144.095,176.269 143.736 C 175.571 143.377,174.374 142.570,173.609 141.942 C 172.844 141.314,172.020 140.800,171.779 140.800 C 171.537 140.800,170.903 140.333,170.370 139.763 C 169.395 138.721,166.863 138.551,165.987 139.468 C 164.184 141.357,164.559 164.160,166.451 167.696 C 166.665 168.095,167.180 169.977,167.595 171.879 C 168.011 173.781,168.691 175.801,169.108 176.368 C 169.524 176.936,170.158 178.265,170.516 179.323 C 170.874 180.380,171.624 181.789,172.183 182.453 C 173.983 184.592,173.389 187.331,171.353 186.281 C 170.719 185.954,168.760 185.406,167.000 185.063 C 165.240 184.721,162.461 184.152,160.824 183.799 C 154.336 182.401,141.560 183.861,131.868 187.108 C 124.119 189.704,124.093 190.654,131.593 197.187 C 134.237 199.489,136.400 201.481,136.400 201.613 C 136.400 201.744,136.985 202.131,137.700 202.473 C 138.415 202.814,139.769 203.737,140.709 204.523 C 141.649 205.309,142.819 206.075,143.309 206.225 C 143.799 206.375,145.190 207.089,146.400 207.811 C 147.610 208.533,149.257 209.235,150.059 209.372 C 150.862 209.509,151.942 209.952,152.459 210.355 C 153.748 211.362,162.137 213.200,165.440 213.200 C 167.540 213.200,166.776 216.263,164.401 217.363 C 163.302 217.872,162.029 218.764,161.572 219.344 C 161.116 219.925,160.518 220.400,160.245 220.400 C 159.971 220.400,158.086 222.155,156.055 224.300 C 150.758 229.895,150.000 230.769,150.000 231.274 C 150.000 231.522,149.505 232.370,148.900 233.159 C 148.295 233.948,147.488 235.283,147.107 236.125 C 146.726 236.967,146.062 238.103,145.632 238.650 C 145.203 239.196,144.456 240.849,143.974 242.322 C 143.491 243.795,142.875 245.270,142.604 245.600 C 140.103 248.644,140.501 256.014,143.113 255.012 C 143.471 254.875,144.582 254.673,145.582 254.563 C 146.582 254.454,148.390 254.193,149.600 253.983 C 150.810 253.774,153.600 253.312,155.800 252.957 C 158.271 252.559,160.412 251.958,161.400 251.386 C 162.280 250.876,163.681 250.335,164.514 250.183 C 165.346 250.030,166.676 249.466,167.468 248.928 C 168.261 248.390,169.650 247.657,170.555 247.300 C 171.460 246.943,172.976 246.099,173.925 245.425 C 175.497 244.309,176.645 243.386,182.331 238.666 L 184.178 237.133 184.889 238.011 C 185.505 238.772,185.602 239.776,185.614 245.544 C 185.623 249.799,185.830 253.066,186.189 254.600 C 187.709 261.102,189.016 265.533,189.788 266.800 C 190.257 267.570,190.892 268.986,191.200 269.947 C 191.508 270.908,192.050 272.078,192.406 272.547 C 192.762 273.016,193.465 274.300,193.967 275.400 C 194.469 276.500,195.312 277.973,195.840 278.673 C 196.367 279.373,196.977 280.412,197.194 280.983 C 198.134 283.456,201.330 282.700,202.884 279.636 C 203.480 278.460,204.237 277.201,204.565 276.838 C 204.894 276.475,205.650 275.103,206.246 273.789 C 206.841 272.475,207.655 270.977,208.054 270.459 C 208.453 269.942,208.893 268.862,209.032 268.059 C 209.171 267.257,209.710 265.936,210.231 265.125 C 212.036 262.314,213.727 252.859,213.794 245.211 L 213.851 238.622 215.110 238.365 C 216.238 238.134,216.611 238.336,218.685 240.297 C 219.958 241.501,221.990 243.121,223.200 243.897 C 224.410 244.673,225.765 245.638,226.211 246.040 C 226.658 246.443,227.795 247.045,228.738 247.378 C 229.681 247.711,230.976 248.355,231.615 248.810 C 232.254 249.265,233.817 249.908,235.088 250.239 C 236.360 250.570,237.845 251.132,238.388 251.487 C 240.147 252.638,257.513 255.562,258.169 254.818 C 259.350 253.477,259.322 251.114,258.099 248.781 C 257.469 247.582,256.717 245.700,256.426 244.600 C 256.136 243.500,255.201 241.419,254.349 239.976 C 253.497 238.533,252.800 237.182,252.800 236.975 C 252.800 236.767,252.170 235.711,251.400 234.628 C 250.630 233.545,250.000 232.449,250.000 232.192 C 250.000 231.934,249.617 231.381,249.148 230.962 C 248.680 230.543,247.893 229.570,247.399 228.800 C 245.582 225.964,237.903 218.747,235.634 217.742 C 232.612 216.404,232.159 213.200,234.992 213.200 C 235.738 213.200,236.788 213.033,237.327 212.828 C 237.865 212.623,239.722 212.262,241.453 212.026 C 243.449 211.754,245.404 211.181,246.800 210.458 C 248.010 209.832,249.670 209.196,250.488 209.044 C 251.307 208.892,252.477 208.362,253.088 207.866 C 253.700 207.370,254.966 206.630,255.902 206.220 C 256.839 205.811,257.821 205.216,258.085 204.898 C 258.349 204.579,259.473 203.705,260.583 202.955 C 266.130 199.204,272.384 193.369,273.120 191.256 C 273.765 189.406,273.399 188.911,270.864 188.206 C 269.619 187.860,267.880 187.235,267.000 186.817 C 265.495 186.102,260.603 185.053,252.800 183.772 C 246.138 182.678,236.417 183.536,229.524 185.825 C 225.724 187.087,225.227 183.936,228.595 179.934 C 229.148 179.276,229.600 178.321,229.600 177.810 C 229.600 177.299,230.115 175.903,230.744 174.707 C 231.394 173.470,232.256 170.736,232.742 168.366 C 233.211 166.075,233.877 162.940,234.222 161.400 C 235.075 157.583,234.856 146.626,233.844 142.493 C 233.110 139.493,231.927 138.195,230.400 138.714 " stroke="none" fill="#fc5404" fill-rule="evenodd"></path><path id="path3" d="M198.179 70.706 C 197.947 70.868,197.328 71.720,196.802 72.600 C 196.277 73.480,195.251 74.907,194.523 75.772 C 193.795 76.637,193.200 77.677,193.200 78.085 C 193.200 78.492,192.922 78.932,192.583 79.062 C 192.244 79.192,191.631 79.951,191.222 80.749 C 190.813 81.547,190.083 82.650,189.599 83.200 C 189.116 83.750,188.292 85.042,187.768 86.072 C 187.244 87.101,186.643 88.050,186.433 88.180 C 186.223 88.310,185.587 89.395,185.021 90.592 C 184.455 91.788,183.544 93.251,182.996 93.842 C 182.448 94.433,182.000 95.219,182.000 95.588 C 182.000 95.957,181.370 97.145,180.600 98.228 C 179.830 99.311,179.200 100.486,179.200 100.839 C 179.200 101.191,178.663 102.272,178.007 103.240 C 177.351 104.208,176.516 105.900,176.152 107.000 C 175.788 108.100,175.075 109.720,174.566 110.600 C 174.058 111.480,173.373 113.231,173.045 114.491 C 172.717 115.750,172.071 117.187,171.609 117.683 C 170.763 118.590,170.658 118.895,170.190 121.781 C 170.049 122.651,169.572 124.071,169.130 124.937 C 168.131 126.895,167.200 130.400,167.200 132.201 C 167.200 136.327,163.804 136.689,157.883 133.196 C 157.080 132.722,155.331 132.080,153.997 131.768 C 152.663 131.457,151.083 130.856,150.486 130.433 C 149.888 130.010,148.050 129.374,146.400 129.019 C 144.750 128.665,142.127 127.930,140.570 127.386 C 139.014 126.843,136.380 126.226,134.717 126.015 C 133.055 125.804,130.638 125.276,129.347 124.841 C 127.017 124.057,120.832 123.191,112.000 122.414 C 109.470 122.191,106.230 121.741,104.800 121.413 C 99.227 120.135,92.537 120.800,92.647 122.620 C 92.801 125.146,94.192 131.594,94.819 132.687 C 95.225 133.394,96.040 135.824,96.629 138.087 C 97.219 140.349,97.956 142.492,98.267 142.850 C 98.579 143.207,99.207 144.827,99.664 146.450 C 100.121 148.072,100.903 150.120,101.402 151.000 C 101.902 151.880,102.423 153.243,102.560 154.029 C 102.697 154.815,103.257 156.065,103.805 156.806 C 104.352 157.548,104.800 158.323,104.800 158.528 C 104.800 159.161,106.893 163.600,107.191 163.600 C 107.347 163.600,107.960 164.839,108.554 166.353 C 109.148 167.868,109.986 169.426,110.417 169.815 C 110.848 170.205,111.200 170.829,111.200 171.203 C 111.200 171.576,111.643 172.493,112.185 173.241 C 112.726 173.988,113.610 175.410,114.149 176.400 C 114.688 177.390,115.486 178.577,115.922 179.038 C 116.358 179.498,117.024 180.488,117.402 181.238 C 117.780 181.987,118.434 182.960,118.857 183.400 C 119.279 183.840,120.359 185.363,121.257 186.784 C 123.101 189.700,123.031 190.189,120.657 191.005 C 119.814 191.295,118.736 191.885,118.262 192.317 C 117.788 192.748,116.716 193.320,115.881 193.588 C 115.045 193.856,114.055 194.403,113.681 194.804 C 113.306 195.206,112.010 196.029,110.800 196.633 C 109.590 197.238,108.380 198.041,108.111 198.418 C 107.842 198.796,106.920 199.385,106.063 199.728 C 105.205 200.071,104.399 200.625,104.271 200.960 C 104.143 201.294,103.129 202.028,102.019 202.590 C 100.908 203.153,100.000 203.752,100.000 203.920 C 100.000 204.089,99.415 204.562,98.700 204.971 C 97.985 205.380,96.860 206.218,96.200 206.834 C 94.902 208.044,92.077 210.456,88.977 213.000 C 87.905 213.880,85.736 215.887,84.158 217.459 C 82.579 219.032,80.908 220.439,80.444 220.586 C 79.980 220.733,79.600 221.028,79.600 221.242 C 79.600 221.455,78.835 222.425,77.900 223.397 C 76.387 224.970,72.709 228.934,69.457 232.496 C 65.977 236.307,65.830 237.986,68.869 239.216 C 69.601 239.512,70.306 239.908,70.434 240.095 C 70.563 240.282,71.970 240.875,73.561 241.414 C 75.152 241.952,76.845 242.666,77.323 243.001 C 77.802 243.336,79.724 244.075,81.596 244.642 C 83.468 245.210,85.583 246.031,86.295 246.467 C 87.007 246.902,88.807 247.431,90.295 247.642 C 91.783 247.852,93.720 248.408,94.600 248.876 C 95.480 249.345,96.920 249.863,97.800 250.028 C 98.680 250.193,100.503 250.524,101.851 250.765 C 103.199 251.005,105.142 251.573,106.168 252.027 C 107.195 252.481,109.521 253.006,111.338 253.194 C 113.155 253.381,116.072 253.731,117.821 253.971 C 128.149 255.389,130.478 255.671,133.574 255.878 C 137.425 256.134,138.370 256.639,138.126 258.310 C 137.873 260.040,136.505 267.949,135.965 270.800 C 135.269 274.478,134.995 299.707,135.601 304.287 C 135.857 306.219,136.205 308.970,136.374 310.400 C 136.543 311.830,136.970 315.070,137.322 317.600 C 137.674 320.130,138.136 323.619,138.348 325.353 C 138.821 329.215,139.242 329.700,142.157 329.742 C 144.026 329.769,144.550 329.609,145.487 328.724 C 146.099 328.147,147.318 327.379,148.195 327.018 C 149.072 326.657,150.152 326.034,150.595 325.634 C 151.038 325.234,152.232 324.597,153.249 324.219 C 154.266 323.840,155.672 323.006,156.374 322.365 C 157.075 321.724,157.867 321.200,158.132 321.200 C 158.397 321.200,159.486 320.480,160.551 319.600 C 161.616 318.720,162.739 318.000,163.047 318.000 C 163.355 318.000,164.172 317.460,164.863 316.800 C 165.554 316.140,166.332 315.600,166.594 315.600 C 167.025 315.600,170.354 313.114,173.400 310.517 C 174.060 309.954,174.985 309.318,175.456 309.103 C 175.927 308.888,176.542 308.282,176.824 307.756 C 177.105 307.230,177.580 306.800,177.878 306.800 C 178.177 306.800,179.002 306.274,179.711 305.631 C 180.420 304.989,182.080 303.524,183.400 302.377 C 186.858 299.372,195.144 290.806,195.413 289.960 C 195.538 289.564,195.995 289.129,196.427 288.991 C 196.860 288.854,197.480 288.105,197.805 287.327 C 198.230 286.309,198.573 285.981,199.031 286.156 C 199.380 286.290,200.110 286.400,200.653 286.400 C 201.389 286.400,201.780 286.731,202.186 287.700 C 202.892 289.385,210.571 297.660,214.713 301.200 C 215.356 301.750,217.062 303.235,218.503 304.500 C 219.944 305.765,221.263 306.800,221.433 306.800 C 221.604 306.800,222.318 307.385,223.020 308.100 C 223.722 308.815,225.049 309.940,225.969 310.600 C 226.890 311.260,228.498 312.529,229.544 313.419 C 230.590 314.310,232.065 315.293,232.823 315.604 C 233.580 315.915,234.528 316.581,234.929 317.085 C 235.330 317.588,235.929 318.000,236.260 318.000 C 236.591 318.000,237.363 318.502,237.976 319.115 C 238.589 319.728,239.880 320.571,240.845 320.989 C 241.810 321.407,242.870 322.068,243.200 322.459 C 243.530 322.849,244.700 323.561,245.800 324.041 C 246.900 324.521,248.309 325.338,248.931 325.857 C 249.553 326.376,250.543 326.920,251.131 327.066 C 251.719 327.212,252.830 327.816,253.600 328.408 C 256.466 330.611,259.193 330.730,259.779 328.677 C 259.854 328.415,260.326 326.940,260.828 325.400 C 261.330 323.860,261.885 320.980,262.061 319.000 C 262.238 317.020,262.569 313.510,262.797 311.200 C 264.311 295.894,264.656 287.128,264.012 280.400 C 262.837 268.136,261.903 260.183,261.379 257.979 C 261.077 256.707,262.371 256.000,264.998 256.000 C 265.967 256.000,268.883 255.721,271.480 255.381 C 274.076 255.040,279.530 254.338,283.600 253.820 C 288.751 253.164,291.790 252.572,293.600 251.871 C 295.030 251.317,297.877 250.566,299.926 250.202 C 301.976 249.838,304.522 249.104,305.584 248.570 C 306.761 247.979,308.210 247.600,309.290 247.600 C 310.399 247.600,311.802 247.222,313.032 246.592 C 314.114 246.038,315.990 245.295,317.200 244.941 C 318.410 244.587,320.226 243.883,321.235 243.375 C 322.244 242.868,324.314 242.057,325.835 241.574 C 327.356 241.091,328.870 240.470,329.200 240.196 C 329.530 239.921,330.380 239.403,331.088 239.044 C 333.592 237.776,333.596 236.555,331.108 233.874 C 330.609 233.336,328.850 231.412,327.200 229.598 C 322.525 224.458,319.742 221.635,315.200 217.425 C 312.890 215.284,310.460 213.024,309.800 212.404 C 309.140 211.784,308.195 211.157,307.700 211.011 C 307.205 210.865,306.800 210.497,306.800 210.193 C 306.800 209.889,306.129 209.137,305.308 208.520 C 303.556 207.205,303.185 206.917,300.800 205.021 C 299.810 204.234,298.481 203.277,297.846 202.895 C 297.211 202.513,296.169 201.705,295.532 201.100 C 294.894 200.495,294.115 200.000,293.800 200.000 C 293.485 200.000,292.621 199.468,291.880 198.817 C 291.139 198.166,289.627 197.179,288.520 196.623 C 287.414 196.067,286.287 195.346,286.018 195.021 C 285.748 194.696,284.580 194.076,283.422 193.642 C 282.264 193.209,280.635 192.392,279.802 191.827 C 278.970 191.262,278.079 190.800,277.824 190.800 C 276.264 190.800,276.714 187.296,278.428 186.095 C 278.855 185.796,279.499 184.977,279.858 184.276 C 280.218 183.574,280.859 182.640,281.282 182.200 C 282.463 180.973,284.669 177.628,285.793 175.361 C 286.348 174.239,287.155 173.003,287.585 172.613 C 288.015 172.224,288.658 171.029,289.014 169.958 C 289.370 168.886,289.824 167.909,290.023 167.786 C 290.222 167.663,290.942 166.356,291.624 164.881 C 292.305 163.406,293.095 161.930,293.380 161.600 C 293.664 161.270,294.263 160.010,294.710 158.800 C 295.157 157.590,295.988 155.790,296.557 154.800 C 297.125 153.810,297.593 152.540,297.595 151.978 C 297.598 151.416,298.100 150.156,298.711 149.178 C 299.322 148.200,300.139 146.057,300.526 144.415 C 300.913 142.773,301.488 141.145,301.803 140.797 C 302.118 140.449,302.839 138.372,303.406 136.182 C 303.974 133.992,304.868 131.300,305.393 130.200 C 306.945 126.952,307.185 122.361,305.857 121.316 C 304.646 120.363,299.007 120.432,294.400 121.456 C 292.970 121.774,289.640 122.210,287.000 122.425 C 277.918 123.166,272.313 123.992,269.650 124.981 C 268.687 125.338,266.439 125.827,264.654 126.067 C 262.869 126.308,260.416 126.848,259.204 127.268 C 257.992 127.687,255.362 128.442,253.361 128.945 C 251.360 129.448,249.110 130.236,248.361 130.696 C 247.612 131.156,246.280 131.658,245.400 131.810 C 244.520 131.962,242.889 132.590,241.776 133.204 C 240.148 134.103,234.807 136.000,233.905 136.000 C 233.568 136.000,232.855 133.982,232.237 131.277 C 231.920 129.890,231.457 128.510,231.208 128.210 C 230.960 127.910,230.435 126.076,230.042 124.133 C 229.598 121.937,228.943 120.038,228.311 119.114 C 227.752 118.297,227.175 116.826,227.028 115.845 C 226.881 114.864,226.232 113.282,225.587 112.331 C 224.942 111.379,224.411 110.298,224.407 109.929 C 224.403 109.560,223.789 108.086,223.043 106.654 C 222.296 105.221,221.366 103.183,220.976 102.125 C 220.587 101.066,219.964 99.930,219.593 99.600 C 219.222 99.270,218.610 98.202,218.233 97.227 C 217.856 96.251,217.110 94.933,216.574 94.296 C 216.038 93.659,215.600 92.918,215.600 92.648 C 215.600 92.378,215.022 91.266,214.316 90.178 C 213.610 89.090,212.735 87.570,212.371 86.800 C 212.007 86.030,211.144 84.817,210.455 84.104 C 209.765 83.391,209.200 82.555,209.200 82.246 C 209.200 81.937,208.669 81.116,208.020 80.422 C 207.372 79.727,206.724 78.763,206.580 78.280 C 206.437 77.796,205.882 76.950,205.346 76.400 C 204.811 75.850,203.818 74.539,203.139 73.486 C 201.710 71.268,199.305 69.920,198.179 70.706 M201.226 73.614 C 201.650 73.841,202.343 74.696,202.765 75.513 C 203.188 76.331,203.908 77.227,204.367 77.503 C 204.825 77.780,205.200 78.265,205.200 78.581 C 205.200 79.278,206.765 82.000,207.166 82.000 C 207.324 82.000,207.846 82.699,208.326 83.554 C 208.806 84.408,209.624 85.386,210.144 85.727 C 210.770 86.137,211.176 86.891,211.348 87.962 C 211.506 88.956,212.052 90.035,212.763 90.762 C 213.399 91.413,214.146 92.633,214.423 93.473 C 214.700 94.313,215.418 95.630,216.019 96.400 C 216.621 97.170,217.330 98.488,217.597 99.328 C 217.863 100.168,218.324 100.949,218.621 101.063 C 219.152 101.267,220.123 103.560,220.576 105.683 C 220.703 106.279,221.244 107.238,221.779 107.815 C 222.313 108.391,222.868 109.434,223.011 110.132 C 223.154 110.829,223.778 112.570,224.398 114.000 C 225.017 115.430,225.922 117.635,226.408 118.900 C 226.895 120.165,227.423 121.200,227.582 121.200 C 228.164 121.200,228.718 123.121,229.203 126.817 C 229.475 128.898,229.962 131.023,230.284 131.540 C 230.607 132.056,231.216 133.484,231.638 134.712 C 232.898 138.371,233.870 139.047,235.750 137.568 C 236.331 137.111,238.111 136.372,239.704 135.927 C 241.297 135.481,242.960 134.798,243.400 134.408 C 244.596 133.349,245.600 132.931,247.672 132.631 C 248.701 132.482,249.961 132.035,250.472 131.638 C 251.716 130.671,253.578 130.122,257.313 129.621 C 259.352 129.348,260.825 128.910,261.582 128.350 C 262.455 127.705,263.666 127.410,266.528 127.147 C 268.613 126.955,272.092 126.419,274.259 125.955 C 281.711 124.359,283.808 124.042,287.200 123.997 C 289.070 123.972,293.660 123.626,297.400 123.227 C 303.668 122.559,304.242 122.553,304.732 123.151 C 305.588 124.196,305.124 127.688,303.891 129.479 C 303.237 130.429,302.744 131.826,302.576 133.200 C 302.429 134.410,301.875 136.194,301.346 137.165 C 300.817 138.136,300.118 140.206,299.793 141.765 C 299.468 143.324,298.874 145.050,298.474 145.600 C 297.554 146.863,297.238 147.712,296.770 150.165 C 296.565 151.245,295.937 152.732,295.376 153.467 C 294.815 154.203,294.078 155.739,293.739 156.880 C 293.401 158.020,292.707 159.504,292.199 160.177 C 291.690 160.850,291.078 162.136,290.839 163.036 C 290.599 163.937,290.041 165.001,289.598 165.402 C 289.155 165.802,288.575 166.866,288.308 167.765 C 288.041 168.664,287.143 170.300,286.312 171.400 C 285.481 172.500,284.607 173.985,284.370 174.700 C 284.132 175.415,283.762 176.000,283.546 176.000 C 283.331 176.000,282.797 176.810,282.358 177.801 C 281.920 178.791,281.110 180.053,280.559 180.605 C 280.007 181.156,279.298 182.226,278.982 182.982 C 278.666 183.738,278.123 184.515,277.776 184.710 C 276.438 185.458,274.361 189.904,275.034 190.577 C 276.280 191.822,279.972 194.039,281.855 194.671 C 282.925 195.030,284.391 195.836,285.114 196.462 C 285.837 197.088,286.781 197.600,287.213 197.600 C 287.644 197.600,288.687 198.222,289.529 198.983 C 290.371 199.744,291.496 200.556,292.030 200.787 C 292.563 201.019,294.170 202.107,295.600 203.205 C 297.030 204.303,299.145 205.836,300.300 206.613 C 301.455 207.389,302.400 208.187,302.400 208.385 C 302.400 208.584,302.805 208.866,303.300 209.013 C 303.795 209.160,304.771 209.847,305.470 210.540 C 306.168 211.233,307.759 212.700,309.005 213.800 C 311.743 216.217,321.771 226.131,327.739 232.322 C 332.473 237.233,332.619 237.690,329.616 238.197 C 328.770 238.340,327.496 238.887,326.784 239.412 C 326.073 239.936,324.492 240.573,323.270 240.827 C 322.049 241.080,320.409 241.711,319.625 242.228 C 318.841 242.745,317.056 243.433,315.659 243.758 C 314.261 244.083,312.461 244.782,311.659 245.313 C 310.596 246.015,308.961 246.466,305.638 246.973 C 302.665 247.426,300.714 247.934,300.038 248.431 C 299.400 248.901,297.536 249.420,295.200 249.779 C 293.110 250.100,290.680 250.721,289.800 251.158 C 288.570 251.770,286.721 252.059,281.800 252.407 C 268.007 253.382,260.665 254.336,259.900 255.251 C 258.871 256.482,258.849 258.522,259.851 259.647 C 262.465 262.578,262.549 316.431,259.948 321.797 C 259.521 322.679,259.062 324.430,258.930 325.688 C 258.585 328.957,257.808 329.551,255.917 327.992 C 255.124 327.339,253.625 326.439,252.586 325.994 C 251.547 325.549,250.184 324.753,249.558 324.226 C 248.932 323.699,247.830 323.144,247.110 322.993 C 246.389 322.841,245.260 322.216,244.600 321.603 C 243.940 320.990,243.012 320.372,242.537 320.229 C 242.063 320.086,240.893 319.348,239.937 318.589 C 238.982 317.829,237.976 317.206,237.703 317.204 C 237.430 317.202,236.746 316.683,236.183 316.052 C 235.620 315.420,234.407 314.565,233.486 314.152 C 232.566 313.738,231.210 312.815,230.472 312.100 C 229.735 311.385,228.871 310.800,228.553 310.800 C 228.235 310.800,227.869 310.523,227.739 310.185 C 227.609 309.847,226.940 309.283,226.252 308.931 C 225.563 308.579,224.341 307.640,223.537 306.845 C 222.732 306.050,221.326 304.770,220.412 304.000 C 219.499 303.230,218.154 302.060,217.424 301.400 C 216.694 300.740,214.839 299.120,213.302 297.800 C 211.765 296.480,210.259 295.011,209.954 294.536 C 209.649 294.060,208.283 292.494,206.918 291.054 C 205.553 289.615,203.942 287.691,203.338 286.778 C 201.524 284.037,198.470 283.469,197.281 285.652 C 196.907 286.341,195.340 288.200,193.800 289.785 C 192.260 291.369,190.157 293.551,189.126 294.633 C 185.788 298.138,180.412 303.200,180.028 303.200 C 179.822 303.200,179.539 303.563,179.398 304.007 C 179.257 304.450,178.390 305.193,177.471 305.657 C 176.552 306.121,175.530 306.746,175.200 307.047 C 174.870 307.347,173.430 308.476,172.000 309.555 C 170.570 310.635,168.961 311.941,168.424 312.459 C 167.887 312.976,166.701 313.850,165.787 314.400 C 161.602 316.920,160.191 317.890,158.955 319.100 C 158.224 319.815,157.252 320.400,156.795 320.400 C 156.338 320.400,155.496 320.867,154.925 321.438 C 154.354 322.009,153.034 322.730,151.991 323.040 C 150.949 323.349,149.860 323.887,149.571 324.235 C 149.282 324.583,147.834 325.478,146.353 326.224 C 144.871 326.970,143.546 327.765,143.406 327.990 C 141.197 331.564,138.400 321.356,138.400 309.720 C 138.400 308.582,138.022 306.154,137.560 304.325 C 136.861 301.561,136.684 299.351,136.509 291.227 C 136.300 281.475,136.478 279.028,137.794 273.600 C 138.087 272.390,138.442 269.330,138.582 266.800 C 138.722 264.270,139.037 261.090,139.281 259.734 C 140.014 255.669,138.429 253.471,134.901 253.661 C 134.075 253.706,130.970 253.523,128.000 253.256 C 125.030 252.989,119.810 252.519,116.400 252.211 C 111.817 251.798,109.803 251.445,108.678 250.858 C 107.783 250.391,105.890 249.952,104.078 249.791 C 102.051 249.611,100.454 249.213,99.400 248.626 C 97.784 247.724,95.162 247.065,91.283 246.583 C 89.956 246.418,88.760 245.978,88.075 245.402 C 87.475 244.897,85.727 244.179,84.192 243.808 C 82.656 243.436,80.915 242.789,80.322 242.370 C 79.729 241.951,78.379 241.406,77.322 241.158 C 74.869 240.583,72.800 239.714,72.800 239.258 C 72.800 239.063,71.945 238.673,70.900 238.390 C 68.880 237.843,67.901 237.279,68.087 236.767 C 68.278 236.237,71.259 232.822,74.134 229.837 C 75.637 228.277,77.041 226.530,77.254 225.955 C 77.466 225.380,78.072 224.713,78.601 224.472 C 79.129 224.232,79.834 223.508,80.167 222.864 C 80.500 222.220,81.192 221.588,81.705 221.460 C 82.669 221.218,86.800 217.391,86.800 216.741 C 86.800 216.539,87.147 216.245,87.571 216.087 C 88.424 215.769,91.777 212.985,93.978 210.768 C 94.760 209.980,95.717 209.220,96.103 209.079 C 96.490 208.938,97.012 208.373,97.262 207.823 C 97.524 207.248,98.288 206.635,99.058 206.381 C 99.795 206.138,100.623 205.638,100.899 205.269 C 101.174 204.901,102.041 204.275,102.824 203.878 C 103.606 203.481,104.941 202.539,105.789 201.784 C 106.638 201.030,107.700 200.295,108.151 200.152 C 108.601 200.009,109.294 199.480,109.690 198.977 C 110.086 198.473,110.993 197.939,111.705 197.789 C 112.417 197.640,113.545 196.999,114.211 196.366 C 114.877 195.733,116.227 194.971,117.211 194.673 C 119.285 194.045,124.800 190.618,124.800 189.957 C 124.800 189.294,122.725 185.600,122.353 185.600 C 122.178 185.600,121.584 184.835,121.033 183.900 C 120.483 182.965,119.691 181.989,119.273 181.732 C 118.855 181.474,118.401 180.705,118.264 180.022 C 118.128 179.338,117.607 178.366,117.108 177.860 C 116.609 177.355,115.771 176.144,115.246 175.170 C 114.722 174.197,114.019 173.180,113.684 172.910 C 113.349 172.641,112.745 171.483,112.341 170.336 C 111.938 169.190,111.175 167.790,110.646 167.226 C 110.117 166.662,109.554 165.570,109.394 164.800 C 109.039 163.088,108.108 161.200,107.618 161.200 C 107.419 161.200,106.971 160.216,106.621 159.012 C 106.271 157.809,105.549 156.355,105.017 155.781 C 104.409 155.125,103.808 153.673,103.398 151.871 C 103.039 150.294,102.242 148.244,101.626 147.314 C 100.968 146.320,100.394 144.778,100.234 143.575 C 100.084 142.442,99.508 140.840,98.946 139.990 C 98.271 138.970,97.817 137.550,97.596 135.768 C 97.402 134.200,96.943 132.648,96.495 132.041 C 95.434 130.604,94.823 128.575,94.718 126.144 C 94.563 122.526,95.140 122.351,103.800 123.396 C 106.440 123.714,110.109 123.981,111.954 123.988 C 115.641 124.001,119.440 124.520,122.755 125.463 C 125.469 126.235,131.633 127.183,134.000 127.193 C 135.015 127.198,136.410 127.538,137.200 127.974 C 139.887 129.457,140.220 129.557,143.294 129.811 C 145.621 130.004,146.742 130.308,147.820 131.039 C 148.608 131.574,150.519 132.363,152.067 132.792 C 153.615 133.221,155.633 134.012,156.553 134.551 C 157.472 135.090,158.907 135.659,159.741 135.815 C 160.575 135.972,161.765 136.527,162.386 137.050 C 165.195 139.413,167.746 137.960,168.178 133.752 C 168.364 131.939,168.772 130.520,169.374 129.593 C 169.943 128.718,170.529 126.780,170.925 124.465 C 171.393 121.731,171.875 120.270,172.744 118.959 C 173.394 117.977,174.141 116.279,174.403 115.186 C 174.666 114.092,175.061 113.086,175.282 112.949 C 175.881 112.579,177.181 109.534,177.191 108.477 C 177.196 107.969,177.723 106.889,178.363 106.077 C 179.013 105.251,179.648 103.839,179.802 102.874 C 179.992 101.691,180.493 100.733,181.395 99.832 C 182.119 99.108,182.827 97.989,182.968 97.345 C 183.110 96.700,183.691 95.639,184.260 94.987 C 184.829 94.334,185.637 93.012,186.055 92.048 C 186.474 91.085,187.262 89.766,187.808 89.118 C 188.354 88.469,188.800 87.617,188.800 87.224 C 188.800 86.831,189.218 86.080,189.730 85.555 C 190.752 84.506,193.478 80.574,194.359 78.877 C 194.667 78.284,195.482 77.169,196.171 76.397 C 196.859 75.625,197.660 74.421,197.950 73.722 C 198.504 72.382,198.900 72.369,201.226 73.614 " stroke="none" fill="#fcdc8c" fill-rule="evenodd"></path><path id="path4" d="M197.127 70.137 C 196.756 70.419,196.334 71.124,196.188 71.704 C 196.043 72.283,195.476 73.051,194.929 73.410 C 194.381 73.769,193.663 74.709,193.332 75.501 C 193.002 76.292,192.301 77.277,191.775 77.691 C 191.249 78.105,190.631 79.142,190.401 79.997 C 190.132 80.994,189.684 81.646,189.151 81.816 C 188.671 81.968,187.975 82.865,187.504 83.940 C 187.055 84.963,186.173 86.391,185.544 87.114 C 184.915 87.837,184.400 88.775,184.400 89.200 C 184.400 89.625,183.857 90.528,183.193 91.207 C 182.529 91.887,181.772 93.242,181.510 94.220 C 181.237 95.241,180.745 96.091,180.355 96.214 C 179.640 96.441,178.400 99.081,178.400 100.375 C 178.400 101.529,177.972 102.400,177.406 102.400 C 176.618 102.400,176.087 103.256,175.535 105.416 C 175.256 106.507,174.555 107.959,173.977 108.643 C 173.263 109.486,172.846 110.554,172.679 111.966 C 172.516 113.339,172.092 114.451,171.431 115.236 C 170.295 116.586,169.606 118.712,169.602 120.877 C 169.601 121.919,169.354 122.527,168.767 122.938 C 167.583 123.767,166.827 126.291,166.537 130.385 C 166.286 133.912,166.282 133.924,165.102 134.160 C 163.182 134.544,160.894 134.003,160.245 133.012 C 159.829 132.377,158.937 131.973,157.131 131.600 C 155.739 131.312,154.294 130.761,153.919 130.376 C 153.090 129.522,151.386 128.951,148.166 128.447 C 146.776 128.229,145.114 127.646,144.291 127.088 C 142.859 126.116,141.748 125.884,136.000 125.360 C 133.715 125.152,132.735 124.865,131.888 124.159 C 130.591 123.077,129.772 122.923,123.600 122.594 C 120.605 122.434,118.163 122.065,116.600 121.536 C 111.581 119.837,93.902 119.186,91.713 120.620 C 90.242 121.584,90.402 124.985,92.000 126.736 C 93.038 127.872,93.200 128.357,93.202 130.325 C 93.205 133.081,93.826 135.521,94.798 136.600 C 95.195 137.040,95.725 138.480,95.976 139.800 C 96.226 141.120,96.511 142.577,96.608 143.037 C 96.705 143.498,97.215 144.308,97.741 144.837 C 98.436 145.536,98.836 146.615,99.197 148.765 C 99.567 150.971,99.951 151.987,100.696 152.733 C 101.371 153.407,101.877 154.596,102.243 156.367 C 102.575 157.970,103.091 159.250,103.562 159.638 C 103.988 159.989,104.545 161.053,104.800 162.001 C 105.056 162.950,105.771 164.233,106.390 164.851 C 107.066 165.528,107.709 166.786,108.002 168.009 C 108.344 169.433,108.829 170.293,109.619 170.878 C 110.382 171.442,110.834 172.215,111.010 173.262 C 111.162 174.162,111.737 175.276,112.382 175.921 C 112.993 176.531,113.628 177.474,113.794 178.015 C 114.164 179.226,115.157 180.400,115.812 180.400 C 116.080 180.400,116.415 180.977,116.556 181.682 C 116.697 182.387,117.500 183.782,118.341 184.782 C 119.181 185.782,119.988 187.078,120.133 187.663 C 120.278 188.247,120.500 188.994,120.626 189.323 C 120.789 189.748,120.416 190.061,119.327 190.409 C 118.487 190.679,117.341 191.388,116.781 191.985 C 116.134 192.675,115.152 193.169,114.091 193.339 C 112.893 193.531,112.176 193.936,111.560 194.768 C 111.049 195.460,110.185 196.026,109.422 196.170 C 108.718 196.302,107.615 196.922,106.971 197.549 C 106.327 198.176,105.058 199.066,104.151 199.526 C 103.245 199.987,102.410 200.720,102.296 201.155 C 102.156 201.691,101.604 202.038,100.593 202.228 C 99.599 202.414,99.029 202.767,98.895 203.279 C 98.785 203.702,98.015 204.320,97.186 204.652 C 96.356 204.984,95.131 205.857,94.462 206.591 C 93.794 207.326,92.709 208.245,92.052 208.633 C 91.395 209.021,90.770 209.671,90.664 210.078 C 90.557 210.484,89.914 211.011,89.233 211.249 C 88.497 211.505,87.905 212.040,87.772 212.569 C 87.636 213.109,87.028 213.646,86.219 213.939 C 85.381 214.242,84.712 214.847,84.410 215.575 C 84.144 216.218,83.521 216.833,83.006 216.963 C 82.447 217.103,81.914 217.672,81.661 218.398 C 81.394 219.164,80.967 219.600,80.483 219.600 C 79.604 219.600,78.400 220.790,78.400 221.659 C 78.400 221.987,77.815 222.513,77.100 222.828 C 76.279 223.189,75.753 223.734,75.671 224.307 C 75.587 224.899,75.068 225.412,74.171 225.786 C 73.216 226.185,72.800 226.619,72.800 227.214 C 72.800 227.797,72.418 228.214,71.602 228.522 C 70.793 228.827,70.264 229.400,69.971 230.287 C 69.693 231.131,69.204 231.684,68.603 231.835 C 68.066 231.970,67.456 232.583,67.169 233.276 C 66.894 233.939,66.138 234.978,65.490 235.584 C 64.069 236.912,64.355 237.819,66.572 239.013 C 67.358 239.436,68.000 239.978,68.000 240.217 C 68.000 240.850,70.393 241.890,72.620 242.224 C 73.820 242.404,74.903 242.866,75.484 243.447 C 76.811 244.775,77.501 245.063,80.100 245.379 C 81.365 245.532,82.406 245.780,82.413 245.929 C 82.451 246.751,84.672 247.605,87.846 248.018 C 90.697 248.390,91.610 248.678,92.460 249.477 C 93.313 250.279,94.287 250.584,97.460 251.045 C 100.027 251.418,102.058 251.969,103.289 252.627 C 104.819 253.446,106.108 253.715,110.089 254.045 C 112.790 254.270,115.339 254.638,115.753 254.863 C 118.306 256.253,120.000 256.506,128.400 256.750 L 137.000 257.000 136.943 258.804 C 136.912 259.797,136.491 261.368,136.007 262.297 C 133.420 267.259,133.828 314.852,136.500 319.775 C 136.746 320.229,137.078 322.548,137.238 324.929 C 137.604 330.393,137.897 330.800,141.454 330.800 C 144.380 330.800,146.893 329.928,147.753 328.615 C 148.115 328.062,148.948 327.586,149.846 327.418 C 150.691 327.259,151.784 326.659,152.370 326.032 C 152.953 325.408,154.049 324.805,154.885 324.648 C 155.856 324.466,156.645 323.979,157.174 323.237 C 157.644 322.577,158.508 321.998,159.244 321.851 C 159.938 321.712,161.076 320.995,161.772 320.257 C 162.468 319.519,163.661 318.710,164.424 318.458 C 165.186 318.207,165.988 317.597,166.205 317.103 C 166.422 316.609,166.960 316.149,167.400 316.080 C 169.026 315.826,170.307 315.122,170.793 314.214 C 171.068 313.700,171.971 312.974,172.800 312.600 C 173.630 312.226,174.499 311.502,174.731 310.991 C 174.964 310.480,175.570 310.003,176.077 309.931 C 176.660 309.848,177.205 309.336,177.555 308.539 C 177.940 307.666,178.468 307.206,179.272 307.046 C 180.361 306.828,181.389 306.019,185.335 302.276 C 186.219 301.438,187.279 300.572,187.690 300.352 C 188.102 300.132,188.607 299.507,188.813 298.965 C 189.020 298.422,189.533 297.848,189.954 297.689 C 190.982 297.300,198.400 288.926,198.400 288.153 C 198.400 287.082,201.986 288.945,202.413 290.238 C 202.638 290.922,203.253 291.678,203.778 291.917 C 204.304 292.157,204.975 292.857,205.270 293.473 C 205.566 294.089,206.281 294.820,206.861 295.098 C 207.440 295.375,208.022 296.034,208.155 296.561 C 208.303 297.155,208.854 297.680,209.600 297.940 C 210.296 298.183,210.970 298.794,211.195 299.387 C 211.410 299.952,212.041 300.588,212.598 300.799 C 213.154 301.011,213.801 301.604,214.035 302.117 C 214.269 302.631,215.056 303.371,215.783 303.763 C 216.511 304.155,217.296 304.893,217.529 305.403 C 217.761 305.913,218.367 306.462,218.876 306.622 C 219.384 306.782,220.499 307.610,221.353 308.462 C 222.207 309.314,223.309 310.113,223.802 310.236 C 224.296 310.360,224.890 310.880,225.123 311.391 C 225.356 311.902,226.144 312.519,226.873 312.761 C 227.625 313.011,228.485 313.704,228.858 314.360 C 229.265 315.076,229.979 315.620,230.729 315.784 C 231.396 315.931,232.571 316.644,233.340 317.369 C 234.109 318.094,235.247 318.790,235.869 318.916 C 236.523 319.048,237.169 319.532,237.400 320.061 C 237.621 320.567,238.483 321.235,239.327 321.553 C 240.166 321.870,241.402 322.641,242.072 323.267 C 242.744 323.895,243.948 324.510,244.759 324.640 C 245.788 324.804,246.412 325.195,246.841 325.943 C 247.286 326.718,248.017 327.156,249.501 327.536 C 250.793 327.867,251.767 328.396,252.143 328.970 C 252.491 329.501,253.516 330.096,254.606 330.402 C 255.633 330.689,256.566 331.166,256.679 331.462 C 256.999 332.295,258.159 332.101,259.438 331.000 C 260.077 330.451,260.715 330.001,260.857 330.000 C 261.638 329.999,262.477 326.156,262.854 320.843 C 263.131 316.958,263.470 314.686,263.869 314.063 C 266.110 310.554,266.102 270.177,263.859 266.200 C 263.095 264.846,262.495 257.249,263.133 257.004 C 263.426 256.892,266.699 256.800,270.407 256.800 C 277.275 256.800,281.750 256.211,283.945 255.019 C 284.525 254.704,286.980 254.274,289.400 254.063 C 292.844 253.764,294.252 253.452,295.883 252.628 C 297.181 251.972,299.217 251.411,301.283 251.139 C 305.279 250.615,306.702 250.139,306.990 249.230 C 307.162 248.689,308.059 248.446,311.288 248.067 C 314.662 247.672,315.544 247.422,316.384 246.626 C 316.943 246.096,318.120 245.546,319.000 245.404 C 322.377 244.859,322.799 244.713,324.189 243.609 C 325.100 242.885,326.326 242.375,327.570 242.204 C 328.909 242.020,329.815 241.619,330.460 240.925 C 330.977 240.370,331.808 239.757,332.307 239.565 C 334.653 238.659,334.204 235.066,331.388 232.209 C 330.404 231.211,329.600 230.221,329.600 230.008 C 329.600 229.795,329.060 229.341,328.400 229.000 C 327.740 228.659,327.200 228.106,327.200 227.771 C 327.200 227.437,326.676 226.862,326.035 226.494 C 325.394 226.126,324.629 225.282,324.335 224.617 C 324.041 223.953,323.378 223.202,322.863 222.949 C 322.347 222.696,321.585 221.929,321.169 221.245 C 320.752 220.560,320.148 220.000,319.826 220.000 C 319.504 220.000,318.760 219.370,318.173 218.600 C 317.586 217.830,316.878 217.200,316.601 217.200 C 316.324 217.200,315.870 216.652,315.592 215.981 C 315.315 215.311,314.534 214.476,313.859 214.127 C 313.183 213.777,312.292 213.062,311.880 212.538 C 311.467 212.013,310.560 211.294,309.865 210.938 C 309.169 210.583,307.548 209.221,306.263 207.910 C 304.977 206.600,303.339 205.283,302.621 204.983 C 301.904 204.683,301.017 203.980,300.649 203.419 C 300.282 202.859,299.617 202.400,299.172 202.400 C 298.703 202.400,298.089 201.923,297.711 201.264 C 297.095 200.191,294.675 198.800,293.424 198.800 C 293.111 198.800,292.736 198.430,292.593 197.977 C 292.449 197.525,291.672 196.852,290.866 196.483 C 290.060 196.114,288.693 195.225,287.828 194.506 C 286.763 193.621,285.836 193.200,284.955 193.200 C 283.978 193.200,283.450 192.913,282.832 192.045 C 282.277 191.266,281.521 190.804,280.505 190.624 C 278.339 190.240,277.600 189.988,277.600 189.634 C 277.600 189.463,277.915 188.950,278.300 188.495 C 278.685 188.040,279.321 187.283,279.714 186.812 C 280.107 186.342,280.527 185.463,280.648 184.859 C 280.769 184.255,281.257 183.589,281.734 183.380 C 282.210 183.171,282.869 182.430,283.200 181.734 C 283.530 181.038,284.289 180.017,284.886 179.466 C 285.485 178.914,286.170 177.679,286.413 176.715 C 286.694 175.600,287.159 174.828,287.700 174.583 C 288.194 174.359,288.807 173.436,289.173 172.362 C 289.518 171.351,290.295 169.943,290.900 169.232 C 291.505 168.520,292.000 167.583,292.000 167.149 C 292.000 166.171,292.994 164.206,293.995 163.205 C 294.670 162.530,295.592 160.093,295.598 158.970 C 295.599 158.733,296.042 158.124,296.583 157.616 C 297.317 156.927,297.690 155.953,298.056 153.777 C 298.447 151.448,298.719 150.783,299.410 150.468 C 300.290 150.067,300.914 148.338,301.420 144.900 C 301.558 143.965,301.818 143.200,301.999 143.200 C 302.600 143.200,303.928 139.834,304.209 137.600 C 304.362 136.390,304.730 135.123,305.028 134.785 C 306.105 133.563,306.718 131.328,306.997 127.600 C 307.218 124.662,307.459 123.608,308.062 122.953 C 309.016 121.914,307.406 120.225,305.037 119.781 C 301.479 119.113,282.318 120.746,280.487 121.873 C 279.935 122.213,277.959 122.515,275.487 122.639 C 269.862 122.919,268.991 123.091,267.695 124.181 C 266.781 124.950,265.925 125.180,263.184 125.392 C 258.393 125.763,255.806 126.323,254.635 127.244 C 254.076 127.683,252.496 128.216,251.111 128.430 C 248.023 128.909,246.481 129.500,246.007 130.387 C 245.768 130.833,244.688 131.235,242.845 131.564 C 240.779 131.933,239.768 132.341,238.992 133.117 C 238.133 133.976,237.560 134.172,235.870 134.185 L 233.800 134.200 233.380 130.952 C 232.992 127.947,232.054 125.600,231.242 125.600 C 231.056 125.600,230.775 124.298,230.618 122.707 C 230.313 119.605,229.559 117.352,228.590 116.641 C 228.260 116.398,227.763 115.088,227.486 113.729 C 227.107 111.868,226.714 111.047,225.891 110.400 C 225.190 109.849,224.799 109.159,224.798 108.471 C 224.794 106.633,224.042 104.579,223.021 103.620 C 222.482 103.114,221.921 102.137,221.775 101.450 C 221.467 100.009,220.501 98.165,219.521 97.147 C 219.148 96.759,218.651 95.732,218.417 94.863 C 218.110 93.724,217.730 93.219,217.049 93.048 C 216.267 92.852,216.069 92.486,215.891 90.910 C 215.724 89.432,215.409 88.786,214.471 88.002 C 213.807 87.449,213.130 86.462,212.967 85.811 C 212.803 85.159,212.076 84.015,211.351 83.268 C 210.626 82.522,209.828 81.290,209.577 80.531 C 209.305 79.707,208.743 79.006,208.182 78.793 C 207.537 78.548,207.161 77.998,206.981 77.037 C 206.823 76.198,206.332 75.385,205.751 75.005 C 205.219 74.656,204.397 73.485,203.924 72.401 C 202.789 69.802,199.158 68.593,197.127 70.137 M200.504 70.986 C 201.394 71.357,202.356 72.270,203.139 73.486 C 203.818 74.539,204.811 75.850,205.346 76.400 C 205.882 76.950,206.437 77.796,206.580 78.280 C 206.724 78.763,207.372 79.727,208.020 80.422 C 208.669 81.116,209.200 81.937,209.200 82.246 C 209.200 82.555,209.765 83.391,210.455 84.104 C 211.144 84.817,212.007 86.030,212.371 86.800 C 212.735 87.570,213.610 89.090,214.316 90.178 C 215.022 91.266,215.600 92.378,215.600 92.648 C 215.600 92.918,216.038 93.659,216.574 94.296 C 217.110 94.933,217.856 96.251,218.233 97.227 C 218.610 98.202,219.222 99.270,219.593 99.600 C 219.964 99.930,220.587 101.066,220.976 102.125 C 221.366 103.183,222.296 105.221,223.043 106.654 C 223.789 108.086,224.403 109.560,224.407 109.929 C 224.411 110.298,224.942 111.379,225.587 112.331 C 226.232 113.282,226.881 114.864,227.028 115.845 C 227.175 116.826,227.752 118.297,228.311 119.114 C 228.943 120.038,229.598 121.937,230.042 124.133 C 230.435 126.076,230.960 127.910,231.208 128.210 C 231.457 128.510,231.920 129.890,232.237 131.277 C 232.855 133.982,233.568 136.000,233.905 136.000 C 234.807 136.000,240.148 134.103,241.776 133.204 C 242.889 132.590,244.520 131.962,245.400 131.810 C 246.280 131.658,247.612 131.156,248.361 130.696 C 249.110 130.236,251.360 129.448,253.361 128.945 C 255.362 128.442,257.992 127.687,259.204 127.268 C 260.416 126.848,262.869 126.308,264.654 126.067 C 266.439 125.827,268.687 125.338,269.650 124.981 C 272.313 123.992,277.918 123.166,287.000 122.425 C 289.640 122.210,292.970 121.774,294.400 121.456 C 299.007 120.432,304.646 120.363,305.857 121.316 C 307.185 122.361,306.945 126.952,305.393 130.200 C 304.868 131.300,303.974 133.992,303.406 136.182 C 302.839 138.372,302.118 140.449,301.803 140.797 C 301.488 141.145,300.913 142.773,300.526 144.415 C 300.139 146.057,299.322 148.200,298.711 149.178 C 298.100 150.156,297.598 151.416,297.595 151.978 C 297.593 152.540,297.125 153.810,296.557 154.800 C 295.988 155.790,295.157 157.590,294.710 158.800 C 294.263 160.010,293.664 161.270,293.380 161.600 C 293.095 161.930,292.305 163.406,291.624 164.881 C 290.942 166.356,290.222 167.663,290.023 167.786 C 289.824 167.909,289.370 168.886,289.014 169.958 C 288.658 171.029,288.015 172.224,287.585 172.613 C 287.155 173.003,286.348 174.239,285.793 175.361 C 284.669 177.628,282.463 180.973,281.282 182.200 C 280.859 182.640,280.218 183.574,279.858 184.276 C 279.499 184.977,278.855 185.796,278.428 186.095 C 276.714 187.296,276.264 190.800,277.824 190.800 C 278.079 190.800,278.970 191.262,279.802 191.827 C 280.635 192.392,282.264 193.209,283.422 193.642 C 284.580 194.076,285.748 194.696,286.018 195.021 C 286.287 195.346,287.414 196.067,288.520 196.623 C 289.627 197.179,291.139 198.166,291.880 198.817 C 292.621 199.468,293.485 200.000,293.800 200.000 C 294.115 200.000,294.894 200.495,295.532 201.100 C 296.169 201.705,297.211 202.513,297.846 202.895 C 298.481 203.277,299.810 204.234,300.800 205.021 C 303.185 206.917,303.556 207.205,305.308 208.520 C 306.129 209.137,306.800 209.889,306.800 210.193 C 306.800 210.497,307.205 210.865,307.700 211.011 C 308.195 211.157,309.140 211.784,309.800 212.404 C 310.460 213.024,312.890 215.284,315.200 217.425 C 319.742 221.635,322.525 224.458,327.200 229.598 C 328.850 231.412,330.609 233.336,331.108 233.874 C 333.596 236.555,333.592 237.776,331.088 239.044 C 330.380 239.403,329.530 239.921,329.200 240.196 C 328.870 240.470,327.356 241.091,325.835 241.574 C 324.314 242.057,322.244 242.868,321.235 243.375 C 320.226 243.883,318.410 244.587,317.200 244.941 C 315.990 245.295,314.114 246.038,313.032 246.592 C 311.802 247.222,310.399 247.600,309.290 247.600 C 308.210 247.600,306.761 247.979,305.584 248.570 C 304.522 249.104,301.976 249.838,299.926 250.202 C 297.877 250.566,295.030 251.317,293.600 251.871 C 291.790 252.572,288.751 253.164,283.600 253.820 C 279.530 254.338,274.076 255.040,271.480 255.381 C 268.883 255.721,265.967 256.000,264.998 256.000 C 262.371 256.000,261.077 256.707,261.379 257.979 C 261.903 260.183,262.837 268.136,264.012 280.400 C 264.656 287.128,264.311 295.894,262.797 311.200 C 262.569 313.510,262.238 317.020,262.061 319.000 C 261.885 320.980,261.330 323.860,260.828 325.400 C 260.326 326.940,259.854 328.415,259.779 328.677 C 259.193 330.730,256.466 330.611,253.600 328.408 C 252.830 327.816,251.719 327.212,251.131 327.066 C 250.543 326.920,249.553 326.376,248.931 325.857 C 248.309 325.338,246.900 324.521,245.800 324.041 C 244.700 323.561,243.530 322.849,243.200 322.459 C 242.870 322.068,241.810 321.407,240.845 320.989 C 239.880 320.571,238.589 319.728,237.976 319.115 C 237.363 318.502,236.591 318.000,236.260 318.000 C 235.929 318.000,235.330 317.588,234.929 317.085 C 234.528 316.581,233.580 315.915,232.823 315.604 C 232.065 315.293,230.590 314.310,229.544 313.419 C 228.498 312.529,226.890 311.260,225.969 310.600 C 225.049 309.940,223.722 308.815,223.020 308.100 C 222.318 307.385,221.604 306.800,221.433 306.800 C 221.263 306.800,219.944 305.765,218.503 304.500 C 217.062 303.235,215.356 301.750,214.713 301.200 C 210.571 297.660,202.892 289.385,202.186 287.700 C 201.780 286.731,201.389 286.400,200.653 286.400 C 200.110 286.400,199.380 286.290,199.031 286.156 C 198.573 285.981,198.230 286.309,197.805 287.327 C 197.480 288.105,196.860 288.854,196.427 288.991 C 195.995 289.129,195.538 289.564,195.413 289.960 C 195.144 290.806,186.858 299.372,183.400 302.377 C 182.080 303.524,180.420 304.989,179.711 305.631 C 179.002 306.274,178.177 306.800,177.878 306.800 C 177.580 306.800,177.105 307.230,176.824 307.756 C 176.542 308.282,175.927 308.888,175.456 309.103 C 174.985 309.318,174.060 309.954,173.400 310.517 C 170.354 313.114,167.025 315.600,166.594 315.600 C 166.332 315.600,165.554 316.140,164.863 316.800 C 164.172 317.460,163.355 318.000,163.047 318.000 C 162.739 318.000,161.616 318.720,160.551 319.600 C 159.486 320.480,158.397 321.200,158.132 321.200 C 157.867 321.200,157.075 321.724,156.374 322.365 C 155.672 323.006,154.266 323.840,153.249 324.219 C 152.232 324.597,151.038 325.234,150.595 325.634 C 150.152 326.034,149.072 326.657,148.195 327.018 C 147.318 327.379,146.099 328.147,145.487 328.724 C 144.550 329.609,144.026 329.769,142.157 329.742 C 139.242 329.700,138.821 329.215,138.348 325.353 C 138.136 323.619,137.674 320.130,137.322 317.600 C 136.970 315.070,136.543 311.830,136.374 310.400 C 136.205 308.970,135.857 306.219,135.601 304.287 C 134.995 299.707,135.269 274.478,135.965 270.800 C 136.505 267.949,137.873 260.040,138.126 258.310 C 138.370 256.639,137.425 256.134,133.574 255.878 C 130.478 255.671,128.149 255.389,117.821 253.971 C 116.072 253.731,113.155 253.381,111.338 253.194 C 109.521 253.006,107.195 252.481,106.168 252.027 C 105.142 251.573,103.199 251.005,101.851 250.765 C 100.503 250.524,98.680 250.193,97.800 250.028 C 96.920 249.863,95.480 249.345,94.600 248.876 C 93.720 248.408,91.783 247.852,90.295 247.642 C 88.807 247.431,87.007 246.902,86.295 246.467 C 85.583 246.031,83.468 245.210,81.596 244.642 C 79.724 244.075,77.802 243.336,77.323 243.001 C 76.845 242.666,75.152 241.952,73.561 241.414 C 71.970 240.875,70.563 240.282,70.434 240.095 C 70.306 239.908,69.601 239.512,68.869 239.216 C 65.830 237.986,65.977 236.307,69.457 232.496 C 72.709 228.934,76.387 224.970,77.900 223.397 C 78.835 222.425,79.600 221.455,79.600 221.242 C 79.600 221.028,79.980 220.733,80.444 220.586 C 80.908 220.439,82.579 219.032,84.158 217.459 C 85.736 215.887,87.905 213.880,88.977 213.000 C 92.077 210.456,94.902 208.044,96.200 206.834 C 96.860 206.218,97.985 205.380,98.700 204.971 C 99.415 204.562,100.000 204.089,100.000 203.920 C 100.000 203.752,100.908 203.153,102.019 202.590 C 103.129 202.028,104.143 201.294,104.271 200.960 C 104.399 200.625,105.205 200.071,106.063 199.728 C 106.920 199.385,107.842 198.796,108.111 198.418 C 108.380 198.041,109.590 197.238,110.800 196.633 C 112.010 196.029,113.306 195.206,113.681 194.804 C 114.055 194.403,115.045 193.856,115.881 193.588 C 116.716 193.320,117.788 192.748,118.262 192.317 C 118.736 191.885,119.814 191.295,120.657 191.005 C 123.031 190.189,123.101 189.700,121.257 186.784 C 120.359 185.363,119.279 183.840,118.857 183.400 C 118.434 182.960,117.780 181.987,117.402 181.238 C 117.024 180.488,116.358 179.498,115.922 179.038 C 115.486 178.577,114.688 177.390,114.149 176.400 C 113.610 175.410,112.726 173.988,112.185 173.241 C 111.643 172.493,111.200 171.576,111.200 171.203 C 111.200 170.829,110.848 170.205,110.417 169.815 C 109.986 169.426,109.148 167.868,108.554 166.353 C 107.960 164.839,107.347 163.600,107.191 163.600 C 106.893 163.600,104.800 159.161,104.800 158.528 C 104.800 158.323,104.352 157.548,103.805 156.806 C 103.257 156.065,102.697 154.815,102.560 154.029 C 102.423 153.243,101.902 151.880,101.402 151.000 C 100.903 150.120,100.121 148.072,99.664 146.450 C 99.207 144.827,98.579 143.207,98.267 142.850 C 97.956 142.492,97.219 140.349,96.629 138.087 C 96.040 135.824,95.225 133.394,94.819 132.687 C 94.192 131.594,92.801 125.146,92.647 122.620 C 92.537 120.800,99.227 120.135,104.800 121.413 C 106.230 121.741,109.470 122.191,112.000 122.414 C 120.832 123.191,127.017 124.057,129.347 124.841 C 130.638 125.276,133.055 125.804,134.717 126.015 C 136.380 126.226,139.014 126.843,140.570 127.386 C 142.127 127.930,144.750 128.665,146.400 129.019 C 148.050 129.374,149.888 130.010,150.486 130.433 C 151.083 130.856,152.663 131.457,153.997 131.768 C 155.331 132.080,157.080 132.722,157.883 133.196 C 163.804 136.689,167.200 136.327,167.200 132.201 C 167.200 130.400,168.131 126.895,169.130 124.937 C 169.572 124.071,170.049 122.651,170.190 121.781 C 170.658 118.895,170.763 118.590,171.609 117.683 C 172.071 117.187,172.717 115.750,173.045 114.491 C 173.373 113.231,174.058 111.480,174.566 110.600 C 175.075 109.720,175.788 108.100,176.152 107.000 C 176.516 105.900,177.351 104.208,178.007 103.240 C 178.663 102.272,179.200 101.191,179.200 100.839 C 179.200 100.486,179.830 99.311,180.600 98.228 C 181.370 97.145,182.000 95.957,182.000 95.588 C 182.000 95.219,182.448 94.433,182.996 93.842 C 183.544 93.251,184.455 91.788,185.021 90.592 C 185.587 89.395,186.223 88.310,186.433 88.180 C 186.643 88.050,187.244 87.101,187.768 86.072 C 188.292 85.042,189.116 83.750,189.599 83.200 C 190.083 82.650,190.813 81.547,191.222 80.749 C 191.631 79.951,192.244 79.192,192.583 79.062 C 192.922 78.932,193.200 78.492,193.200 78.085 C 193.200 77.677,193.795 76.637,194.523 75.772 C 195.251 74.907,196.277 73.480,196.802 72.600 C 198.240 70.193,198.419 70.115,200.504 70.986 " stroke="none" fill="#fcf0cc" fill-rule="evenodd"></path></g></svg>